Release Title: Dolphin Tale 2011

Release Date: 4 November 2011 (India)

Film Length: 1:52:40

Tagline: Inspired by the amazing true story of Winter.

Genres: | Drama | Family 

Storyline: A lonely and friendless boy finds and untangles a hurt dolphin that is caught in a crab trap. He becomes very attached to the dolphin when the tail must be taken off to save the dolphin's life. The boy believes the dolphin would be able to swim normally if it was given a prosthetic tail.

Harry Connick Jr. 	... 	Dr. Clay Haskett
Ashley Judd 		... 	Lorraine Nelson
Nathan Gamble 		... 	Sawyer Nelson
Kris Kristofferson 	... 	Reed Haskett
Cozi Zuehlsdorff 	... 	Hazel Haskett
Morgan Freeman 		... 	Dr. Cameron McCarthy
Austin Stowell 		... 	Kyle Connellan
Frances Sternhagen 	... 	Gloria Forrest
Austin Highsmith 	... 	Phoebe
Betsy Landin 		... 	Kat
Juliana Harkavy 	... 	Rebecca
Megan Lozicki 		... 	Brittany
Tom Nowicki 		... 	Philip J. Hordern
Jim Fitzpatrick 	... 	Max Connellan
Kim Ostrenko 		... 	Alyce Connellan
 
Format : Matroska
File size : 2.35 GiB
Duration : 1h 52mn
Overall bit rate : 2 985 Kbps
Encoded date : UTC 2012-03-05 16:07:35
Writing application : mkvmerge v5.0.0 ('Die Wahre Liebe') built on Sep 25 2011 20:33:49
Writing library : libebml v1.2.2 + libmatroska v1.3.0

Video
ID : 1
Format : AVC
Format/Info : Advanced Video Codec
Format profile : High@L4.1
Format settings, CABAC : Yes
Format settings, ReFrames : 4 frames
Muxing mode : Header stripping
Codec ID : V_MPEG4/ISO/AVC
Duration : 1h 52mn
Bit rate : 2 409 Kbps
Width : 1 280 pixels
Height : 720 pixels
Display aspect ratio : 16:9
Frame rate : 23.976 fps
Color space : YUV
Chroma subsampling : 4:2:0
Bit depth : 8 bits
Scan type : Progressive
Bits/(Pixel*Frame) : 0.109
Stream size : 1.85 GiB (79%)
Writing library : x264 core 120 r2164 da19765

Audio #1
ID : 2
Format : AC-3
Format/Info : Audio Coding 3
Mode extension : CM (complete main)
Muxing mode : Header stripping
Codec ID : A_AC3
Duration : 1h 52mn
Bit rate mode : Constant
Bit rate : 384 Kbps
Channel(s) : 6 channels
Channel positions : Front: L C R, Side: L R, LFE
Sampling rate : 48.0 KHz
Bit depth : 16 bits
Compression mode : Lossy
Stream size : 309 MiB (13%)
Title : Alan_English 5.1
Language : English

Audio #2
ID : 3
Format : AC-3
Format/Info : Audio Coding 3
Mode extension : CM (complete main)
Muxing mode : Header stripping
Codec ID : A_AC3
Duration : 1h 52mn
Bit rate mode : Constant
Bit rate : 192 Kbps
Channel(s) : 2 channels
Channel positions : Front: L R
Sampling rate : 48.0 KHz
Bit depth : 16 bits
Compression mode : Lossy
Stream size : 155 MiB (6%)
Title : Alan_Hindi
Language : Hindi
